<svg version="1.1" xmlns="http://www.w3.org/2000/svg" viewBox="0 0 1405.7093186372847 1096.3395925000423" width="1405.7093186372847" height="1096.3395925000423" filter="invert(93%) hue-rotate(180deg)">
  <!-- svg-source:excalidraw -->
  
  <defs>
    <style class="style-fonts">
      @font-face {
        font-family: "Virgil";
        src: url("https://excalidraw.com/Virgil.woff2");
      }
      @font-face {
        font-family: "Cascadia";
        src: url("https://excalidraw.com/Cascadia.woff2");
      }
      @font-face {
        font-family: "Assistant";
        src: url("https://excalidraw.com/Assistant-Regular.woff2");
      }
    </style>
    
  </defs>
  <rect x="0" y="0" width="1405.7093186372847" height="1096.3395925000423" fill="#ffffff"></rect><g transform="translate(77.84947634293695 10) rotate(0 132.5833282470703 22.5)"><text x="0" y="0" font-family="Virgil, Segoe UI Emoji" font-size="36px" fill="#1971c2" text-anchor="start" style="white-space: pre;" direction="ltr" dominant-baseline="text-before-edge">Cont. Variables</text></g><g transform="translate(52.214579342936965 665.3932580000001) rotate(0 111.88333129882812 22.5)"><text x="0" y="0" font-family="Virgil, Segoe UI Emoji" font-size="36px" fill="#2f9e44" text-anchor="start" style="white-space: pre;" direction="ltr" dominant-baseline="text-before-edge">Condicionales</text></g><g transform="translate(53.16029417498052 77.09114339499138) rotate(0 146.73333740234375 10)"><text x="0" y="0" font-family="Virgil, Segoe UI Emoji" font-size="16px" fill="#1e1e1e" text-anchor="start" style="white-space: pre;" direction="ltr" dominant-baseline="text-before-edge">Vale: Algo que nos lleva a otra cosa</text></g><g transform="translate(35.9990381749805 291.56023239499245) rotate(0 217.5749969482422 10)"><text x="0" y="0" font-family="Virgil, Segoe UI Emoji" font-size="16px" fill="#1e1e1e" text-anchor="start" style="white-space: pre;" direction="ltr" dominant-baseline="text-before-edge">Un identificador nos lleva a un valor. Hay varios tipos.</text></g><g stroke-linecap="round" transform="translate(62.62896404648335 131.10109775723595) rotate(0 62.429165 23.735705396648882)"><path d="M11.87 0 C39.55 -2.55, 65.94 -2.42, 112.99 0 M112.99 0 C120 -1.46, 124.9 5.89, 124.86 11.87 M124.86 11.87 C126.02 16.42, 124.83 25.52, 124.86 35.6 M124.86 35.6 C124.01 42.44, 121.15 48.68, 112.99 47.47 M112.99 47.47 C72.21 48.59, 32.34 46.56, 11.87 47.47 M11.87 47.47 C2.24 48.74, 0.64 42.52, 0 35.6 M0 35.6 C-0.72 30.2, -0.4 22.49, 0 11.87 M0 11.87 C-1.22 5.19, 5.29 1.1, 11.87 0" stroke="#343a40" stroke-width="1.5" fill="none" stroke-dasharray="8 9"></path></g><g transform="translate(76.96646187119038 144.83680315388483) rotate(0 48.09166717529297 10)"><text x="48.09166717529297" y="0" font-family="Virgil, Segoe UI Emoji" font-size="16px" fill="#343a40" text-anchor="middle" style="white-space: pre;" direction="ltr" dominant-baseline="text-before-edge">identificador</text></g><g stroke-linecap="round" transform="translate(62.62896404648335 213.7740167572356) rotate(0 62.429165 23.735705396648882)"><path d="M11.87 0 C33.52 0.22, 55.56 1.29, 112.99 0 M112.99 0 C119.09 1.19, 126.34 3.06, 124.86 11.87 M124.86 11.87 C123.99 16.89, 123.45 25.41, 124.86 35.6 M124.86 35.6 C125.24 41.52, 121.04 47.39, 112.99 47.47 M112.99 47.47 C86.04 45.54, 59.65 46.65, 11.87 47.47 M11.87 47.47 C3.91 47.25, -0.16 44.82, 0 35.6 M0 35.6 C-1.53 28.33, -1.92 22.32, 0 11.87 M0 11.87 C1.87 4.85, 2.28 -1.97, 11.87 0" stroke="#343a40" stroke-width="1.5" fill="none" stroke-dasharray="8 9"></path></g><g transform="translate(99.9414622526601 227.50972215388447) rotate(0 25.116666793823242 10)"><text x="25.116666793823242" y="0" font-family="Virgil, Segoe UI Emoji" font-size="16px" fill="#343a40" text-anchor="middle" style="white-space: pre;" direction="ltr" dominant-baseline="text-before-edge">nombre</text></g><g stroke-linecap="round"><g transform="translate(184.78838590033527 157.84555480523522) rotate(0 49.811550761980726 0)"><path d="M-0.89 -0.85 C15.75 -0.74, 82.7 0.88, 99.56 1.06 M0.84 1.32 C17.34 1.08, 82.07 -0.56, 98.58 -0.51" stroke="#343a40" stroke-width="1" fill="none"></path></g><g transform="translate(184.78838590033527 157.84555480523522) rotate(0 49.811550761980726 0)"><path d="M75.2 8.35 C80.29 5.94, 90.01 4.71, 98.58 -0.51 M75.2 8.35 C82.63 6.37, 90.46 2.91, 98.58 -0.51" stroke="#343a40" stroke-width="1" fill="none"></path></g><g transform="translate(184.78838590033527 157.84555480523522) rotate(0 49.811550761980726 0)"><path d="M74.98 -8.75 C80.19 -6.38, 89.97 -2.83, 98.58 -0.51 M74.98 -8.75 C82.6 -5.32, 90.51 -3.36, 98.58 -0.51" stroke="#343a40" stroke-width="1" fill="none"></path></g></g><mask></mask><g stroke-linecap="round"><g transform="translate(184.78838590033527 240.51847380523486) rotate(0 49.811550761980726 0)"><path d="M-0.42 -1.02 C16.41 -1.1, 83.06 -1.41, 99.85 -1.09 M1.57 1.05 C18.34 1.14, 82.62 0.22, 99.02 -0.12" stroke="#343a40" stroke-width="1" fill="none"></path></g><g transform="translate(184.78838590033527 240.51847380523486) rotate(0 49.811550761980726 0)"><path d="M75.67 8.82 C78.91 7.4, 83.7 6.34, 99.02 -0.12 M75.67 8.82 C84.11 5.87, 92.79 1.74, 99.02 -0.12" stroke="#343a40" stroke-width="1" fill="none"></path></g><g transform="translate(184.78838590033527 240.51847380523486) rotate(0 49.811550761980726 0)"><path d="M75.39 -8.28 C78.59 -6.11, 83.44 -3.58, 99.02 -0.12 M75.39 -8.28 C83.85 -4.83, 92.64 -2.56, 99.02 -0.12" stroke="#343a40" stroke-width="1" fill="none"></path></g></g><mask></mask><g transform="translate(294.7749642718855 146.99570193050022) rotate(0 13.316666603088379 10)"><text x="0" y="0" font-family="Virgil, Segoe UI Emoji" font-size="16px" fill="#343a40" text-anchor="start" style="white-space: pre;" direction="ltr" dominant-baseline="text-before-edge">123</text></g><g transform="translate(294.7749642718855 229.66862093049986) rotate(0 21.191667556762695 10)"><text x="0" y="0" font-family="Virgil, Segoe UI Emoji" font-size="16px" fill="#343a40" text-anchor="start" style="white-space: pre;" direction="ltr" dominant-baseline="text-before-edge">"Vale"</text></g><g transform="translate(79.53720592849027 321.70270325141337) rotate(0 142.39999389648438 120)"><text x="0" y="0" font-family="Virgil, Segoe UI Emoji" font-size="16px" fill="#343a40" text-anchor="start" style="white-space: pre;" direction="ltr" dominant-baseline="text-before-edge">- Números.</text><text x="0" y="20" font-family="Virgil, Segoe UI Emoji" font-size="16px" fill="#343a40" text-anchor="start" style="white-space: pre;" direction="ltr" dominant-baseline="text-before-edge">   - Números enteros: -10 o 4.</text><text x="0" y="40" font-family="Virgil, Segoe UI Emoji" font-size="16px" fill="#343a40" text-anchor="start" style="white-space: pre;" direction="ltr" dominant-baseline="text-before-edge">   - Números enteros sin signo: 19</text><text x="0" y="60" font-family="Virgil, Segoe UI Emoji" font-size="16px" fill="#343a40" text-anchor="start" style="white-space: pre;" direction="ltr" dominant-baseline="text-before-edge">   - Números decimales: -1.2 o 2.3.</text><text x="0" y="80" font-family="Virgil, Segoe UI Emoji" font-size="16px" fill="#343a40" text-anchor="start" style="white-space: pre;" direction="ltr" dominant-baseline="text-before-edge">   - Números decimales sin signo: 1.2</text><text x="0" y="100" font-family="Virgil, Segoe UI Emoji" font-size="16px" fill="#343a40" text-anchor="start" style="white-space: pre;" direction="ltr" dominant-baseline="text-before-edge">- Cadenas de texto.</text><text x="0" y="120" font-family="Virgil, Segoe UI Emoji" font-size="16px" fill="#343a40" text-anchor="start" style="white-space: pre;" direction="ltr" dominant-baseline="text-before-edge">   - "Jeremy"</text><text x="0" y="140" font-family="Virgil, Segoe UI Emoji" font-size="16px" fill="#343a40" text-anchor="start" style="white-space: pre;" direction="ltr" dominant-baseline="text-before-edge">- Caracteres:</text><text x="0" y="160" font-family="Virgil, Segoe UI Emoji" font-size="16px" fill="#343a40" text-anchor="start" style="white-space: pre;" direction="ltr" dominant-baseline="text-before-edge">   - 'a'</text><text x="0" y="180" font-family="Virgil, Segoe UI Emoji" font-size="16px" fill="#343a40" text-anchor="start" style="white-space: pre;" direction="ltr" dominant-baseline="text-before-edge">- Booleanos:</text><text x="0" y="200" font-family="Virgil, Segoe UI Emoji" font-size="16px" fill="#343a40" text-anchor="start" style="white-space: pre;" direction="ltr" dominant-baseline="text-before-edge">   - True o False</text><text x="0" y="220" font-family="Virgil, Segoe UI Emoji" font-size="16px" fill="#343a40" text-anchor="start" style="white-space: pre;" direction="ltr" dominant-baseline="text-before-edge">- Nuestros propios tipos.</text></g><g transform="translate(489.44202383426926 157.71920997408233) rotate(0 79.75833129882812 9.599999999999909)"><text x="0" y="0" font-family="Cascadia, Segoe UI Emoji" font-size="16px" fill="#343a40" text-anchor="start" style="white-space: pre;" direction="ltr" dominant-baseline="text-before-edge">nombre = "Jeremy"</text></g><g transform="translate(510.8439999728219 99.96979936641674) rotate(0 177.06666564941406 12.5)"><text x="0" y="0" font-family="Virgil, Segoe UI Emoji" font-size="20px" fill="#e03131" text-anchor="start" style="white-space: pre;" direction="ltr" dominant-baseline="text-before-edge">Sintaxis para declarar una variable</text></g><g stroke-linecap="round"><g transform="translate(515.2178925520113 202.0317725186933) rotate(0 0.023544600593339737 -9.457481888191978)"><path d="M-0.49 -0.44 C-0.51 -3.59, -0.12 -15.81, 0.03 -18.88 M0.26 0.53 C0.15 -2.54, -0.4 -15.03, -0.42 -18.16" stroke="#f08c00" stroke-width="1" fill="none"></path></g><g transform="translate(515.2178925520113 202.0317725186933) rotate(0 0.023544600593339737 -9.457481888191978)"><path d="M3.06 -9.37 C1.54 -12.29, 0.8 -14.9, -0.42 -18.16 M3.06 -9.37 C1.93 -12.02, 0.73 -14.69, -0.42 -18.16" stroke="#f08c00" stroke-width="1" fill="none"></path></g><g transform="translate(515.2178925520113 202.0317725186933) rotate(0 0.023544600593339737 -9.457481888191978)"><path d="M-3.41 -9.19 C-2.8 -12.15, -1.42 -14.81, -0.42 -18.16 M-3.41 -9.19 C-2.55 -11.89, -1.77 -14.62, -0.42 -18.16" stroke="#f08c00" stroke-width="1" fill="none"></path></g></g><mask></mask><g stroke-linecap="round"><g transform="translate(622.4793132161872 329.82637713285203) rotate(0 6.9636417202678444 -11.385048195271793)"><path d="M0.31 0.17 C2.61 -3.65, 11.61 -19.41, 13.79 -23.21 M-0.2 -0.22 C2.02 -3.95, 10.85 -18.84, 13.29 -22.73" stroke="#f08c00" stroke-width="1" fill="none"></path></g><g transform="translate(622.4793132161872 329.82637713285203) rotate(0 6.9636417202678444 -11.385048195271793)"><path d="M10.68 -9.64 C11.69 -13.69, 11.73 -18.05, 13.29 -22.73 M10.68 -9.64 C11.24 -14.24, 12.59 -18.43, 13.29 -22.73" stroke="#f08c00" stroke-width="1" fill="none"></path></g><g transform="translate(622.4793132161872 329.82637713285203) rotate(0 6.9636417202678444 -11.385048195271793)"><path d="M2.87 -14.39 C6.19 -17.05, 8.54 -20, 13.29 -22.73 M2.87 -14.39 C6.03 -17.43, 9.99 -20.04, 13.29 -22.73" stroke="#f08c00" stroke-width="1" fill="none"></path></g></g><mask></mask><g transform="translate(467.35541871879843 209.66862088564812) rotate(0 48.09166717529297 10)"><text x="0" y="0" font-family="Virgil, Segoe UI Emoji" font-size="16px" fill="#f08c00" text-anchor="start" style="white-space: pre;" direction="ltr" dominant-baseline="text-before-edge">identificador</text></g><g transform="translate(588.5964917187985 334.13560588564724) rotate(0 48.09166717529297 10)"><text x="0" y="0" font-family="Virgil, Segoe UI Emoji" font-size="16px" fill="#f08c00" text-anchor="start" style="white-space: pre;" direction="ltr" dominant-baseline="text-before-edge">identificador</text></g><g stroke-linecap="round"><g transform="translate(586.2782165930485 199.09046766798656) rotate(0 -11.76097846678283 -12.765716620958301)"><path d="M-0.58 -0.8 C-4.54 -4.72, -20.52 -20.35, -24.38 -24.4 M1.31 1.39 C-2.22 -2.76, -17.8 -21.16, -22.11 -25.93" stroke="#1971c2" stroke-width="1" fill="none"></path></g><g transform="translate(586.2782165930485 199.09046766798656) rotate(0 -11.76097846678283 -12.765716620958301)"><path d="M-6.92 -17.54 C-11.79 -20.93, -12.76 -22.04, -22.11 -25.93 M-6.92 -17.54 C-11.81 -19.83, -16.75 -23.84, -22.11 -25.93" stroke="#1971c2" stroke-width="1" fill="none"></path></g><g transform="translate(586.2782165930485 199.09046766798656) rotate(0 -11.76097846678283 -12.765716620958301)"><path d="M-15.87 -9.73 C-18.46 -15.01, -17.21 -18.06, -22.11 -25.93 M-15.87 -9.73 C-17.81 -14.62, -19.77 -21.23, -22.11 -25.93" stroke="#1971c2" stroke-width="1" fill="none"></path></g></g><mask></mask><g stroke-linecap="round"><g transform="translate(709.2924945930483 324.4037996679872) rotate(0 -11.76097846678283 -12.765716620958301)"><path d="M0.57 0.91 C-3.6 -3.26, -20.38 -21.28, -24.51 -25.78 M-0.58 0.35 C-4.44 -3.58, -18.2 -20.13, -22.32 -24.37" stroke="#1971c2" stroke-width="1" fill="none"></path></g><g transform="translate(709.2924945930483 324.4037996679872) rotate(0 -11.76097846678283 -12.765716620958301)"><path d="M-7.02 -16.17 C-10.94 -20.37, -17.92 -22.77, -22.32 -24.37 M-7.02 -16.17 C-10.44 -18.22, -14.4 -20.86, -22.32 -24.37" stroke="#1971c2" stroke-width="1" fill="none"></path></g><g transform="translate(709.2924945930483 324.4037996679872) rotate(0 -11.76097846678283 -12.765716620958301)"><path d="M-15.87 -8.26 C-16.68 -15.24, -20.6 -20.37, -22.32 -24.37 M-15.87 -8.26 C-17.02 -12.25, -18.75 -16.89, -22.32 -24.37" stroke="#1971c2" stroke-width="1" fill="none"></path></g></g><mask></mask><g transform="translate(591.4820151140104 204.37909748388665) rotate(0 89.30833435058594 10)"><text x="0" y="0" font-family="Virgil, Segoe UI Emoji" font-size="16px" fill="#1971c2" text-anchor="start" style="white-space: pre;" direction="ltr" dominant-baseline="text-before-edge">operador de asignación</text></g><g transform="translate(689.8142461140103 328.00534848388725) rotate(0 89.30833435058594 10)"><text x="0" y="0" font-family="Virgil, Segoe UI Emoji" font-size="16px" fill="#1971c2" text-anchor="start" style="white-space: pre;" direction="ltr" dominant-baseline="text-before-edge">operador de asignación</text></g><g stroke-linecap="round"><g transform="translate(646.7966126678054 146.99203652700635) rotate(0 -10.997959473750313 5.209559750723656)"><path d="M-0.29 0.53 C-3.92 2.27, -18.13 9.11, -21.71 10.73 M0.56 0.33 C-3.11 1.88, -18.24 8.18, -21.99 9.92" stroke="#2f9e44" stroke-width="1" fill="none"></path></g><g transform="translate(646.7966126678054 146.99203652700635) rotate(0 -10.997959473750313 5.209559750723656)"><path d="M-13.17 1.53 C-15.27 4.39, -18.21 6.93, -21.99 9.92 M-13.17 1.53 C-15.31 3.66, -18.13 6.1, -21.99 9.92" stroke="#2f9e44" stroke-width="1" fill="none"></path></g><g transform="translate(646.7966126678054 146.99203652700635) rotate(0 -10.997959473750313 5.209559750723656)"><path d="M-9.85 9.16 C-12.98 9.68, -16.94 9.88, -21.99 9.92 M-9.85 9.16 C-12.87 9.25, -16.59 9.65, -21.99 9.92" stroke="#2f9e44" stroke-width="1" fill="none"></path></g></g><mask></mask><g stroke-linecap="round"><g transform="translate(771.0969756678053 265.91598252700624) rotate(0 -10.997959473750313 5.209559750723656)"><path d="M0.31 -0.26 C-3.48 1.57, -18.6 8.79, -22.35 10.62 M-0.19 0.8 C-3.84 2.49, -17.56 8.25, -21.3 9.75" stroke="#2f9e44" stroke-width="1" fill="none"></path></g><g transform="translate(771.0969756678053 265.91598252700624) rotate(0 -10.997959473750313 5.209559750723656)"><path d="M-12.31 1.55 C-15.99 4.25, -18.85 7.5, -21.3 9.75 M-12.31 1.55 C-15.62 4.44, -18.55 7.06, -21.3 9.75" stroke="#2f9e44" stroke-width="1" fill="none"></path></g><g transform="translate(771.0969756678053 265.91598252700624) rotate(0 -10.997959473750313 5.209559750723656)"><path d="M-9.14 9.24 C-13.98 9.07, -18.03 9.44, -21.3 9.75 M-9.14 9.24 C-13.56 9.44, -17.6 9.35, -21.3 9.75" stroke="#2f9e44" stroke-width="1" fill="none"></path></g></g><mask></mask><g transform="translate(651.4273322800425 132.5181700809535) rotate(0 19.491666793823242 10)"><text x="0" y="0" font-family="Virgil, Segoe UI Emoji" font-size="16px" fill="#2f9e44" text-anchor="start" style="white-space: pre;" direction="ltr" dominant-baseline="text-before-edge">valor</text></g><g transform="translate(775.7276952800423 251.44211608095338) rotate(0 19.491666793823242 10)"><text x="0" y="0" font-family="Virgil, Segoe UI Emoji" font-size="16px" fill="#2f9e44" text-anchor="start" style="white-space: pre;" direction="ltr" dominant-baseline="text-before-edge">valor</text></g><g transform="translate(542.0220421227215 281.46023188977324) rotate(0 117.29166412353513 9.599999999999909)"><text x="0" y="0" font-family="Cascadia, Segoe UI Emoji" font-size="16px" fill="#1e1e1e" text-anchor="start" style="white-space: pre;" direction="ltr" dominant-baseline="text-before-edge">String nombre = "Jeremy";</text></g><g transform="translate(748.3860298313987 152.51816959008283) rotate(0 46.83333206176758 12.5)"><text x="0" y="0" font-family="Virgil, Segoe UI Emoji" font-size="20px" fill="#343a40" text-anchor="start" style="white-space: pre;" direction="ltr" dominant-baseline="text-before-edge">En python</text></g><g transform="translate(873.4419618313987 283.4305175900845) rotate(0 29.391666412353516 12.5)"><text x="0" y="0" font-family="Virgil, Segoe UI Emoji" font-size="20px" fill="#343a40" text-anchor="start" style="white-space: pre;" direction="ltr" dominant-baseline="text-before-edge">En c#</text></g><g stroke-linecap="round"><g transform="translate(549.9584474568092 334.6747076850643) rotate(0 4.488487882843515 -13.105833907727174)"><path d="M0.17 -0.17 C1.7 -4.55, 7.3 -21.91, 8.74 -26.24 M-0.41 -0.73 C1.07 -5.02, 6.72 -21.42, 8.19 -25.56" stroke="#e03131" stroke-width="1" fill="none"></path></g><g transform="translate(549.9584474568092 334.6747076850643) rotate(0 4.488487882843515 -13.105833907727174)"><path d="M8.37 -11.71 C8.12 -15.06, 8.24 -18.02, 8.19 -25.56 M8.37 -11.71 C8.43 -16.14, 8.23 -20.45, 8.19 -25.56" stroke="#e03131" stroke-width="1" fill="none"></path></g><g transform="translate(549.9584474568092 334.6747076850643) rotate(0 4.488487882843515 -13.105833907727174)"><path d="M-0.57 -14.83 C1.14 -17.51, 3.24 -19.78, 8.19 -25.56 M-0.57 -14.83 C2.21 -18.35, 4.74 -21.71, 8.19 -25.56" stroke="#e03131" stroke-width="1" fill="none"></path></g></g><mask></mask><g transform="translate(505.2176308860746 328.0053479893968) rotate(0 31.758333206176758 20)"><text x="0" y="0" font-family="Virgil, Segoe UI Emoji" font-size="16px" fill="#e03131" text-anchor="start" style="white-space: pre;" direction="ltr" dominant-baseline="text-before-edge">tipo </text><text x="0" y="20" font-family="Virgil, Segoe UI Emoji" font-size="16px" fill="#e03131" text-anchor="start" style="white-space: pre;" direction="ltr" dominant-baseline="text-before-edge">de dato</text></g><g transform="translate(809.8399164598088 183.15090644506563) rotate(0 39.00833511352539 10)"><text x="0" y="0" font-family="Virgil, Segoe UI Emoji" font-size="16px" fill="#343a40" text-anchor="start" style="white-space: pre;" direction="ltr" dominant-baseline="text-before-edge">Inferencia</text></g><g transform="translate(809.8399160441966 210.71168555272106) rotate(0 69.125 10)"><text x="0" y="0" font-family="Virgil, Segoe UI Emoji" font-size="16px" fill="#343a40" text-anchor="start" style="white-space: pre;" direction="ltr" dominant-baseline="text-before-edge">Debilmente tipado</text></g><g transform="translate(897.7943580441965 315.31826655272107) rotate(0 76.43333435058594 10)"><text x="0" y="0" font-family="Virgil, Segoe UI Emoji" font-size="16px" fill="#343a40" text-anchor="start" style="white-space: pre;" direction="ltr" dominant-baseline="text-before-edge">Fuertemente tipado</text></g><g transform="translate(508.28356150052645 433.40461755758315) rotate(0 79.75833129882812 9.599999999999909)"><text x="0" y="0" font-family="Cascadia, Segoe UI Emoji" font-size="16px" fill="#343a40" text-anchor="start" style="white-space: pre;" direction="ltr" dominant-baseline="text-before-edge">nombre-de-usuario</text></g><g transform="translate(761.9836215005264 433.40461755758315) rotate(0 79.75833129882812 9.599999999999909)"><text x="0" y="0" font-family="Cascadia, Segoe UI Emoji" font-size="16px" fill="#343a40" text-anchor="start" style="white-space: pre;" direction="ltr" dominant-baseline="text-before-edge">nombre de usuario</text></g><g transform="translate(506.6012505005265 458.9157005575835) rotate(0 79.75833129882815 9.599999999999909)"><text x="0" y="0" font-family="Cascadia, Segoe UI Emoji" font-size="16px" fill="#343a40" text-anchor="start" style="white-space: pre;" direction="ltr" dominant-baseline="text-before-edge">nombre_de_usuario</text></g><g transform="translate(506.7150235005265 484.4267835575838) rotate(0 60.99166488647464 9.599999999999909)"><text x="0" y="0" font-family="Cascadia, Segoe UI Emoji" font-size="16px" fill="#343a40" text-anchor="start" style="white-space: pre;" direction="ltr" dominant-baseline="text-before-edge">nombreUsuario</text></g><g transform="translate(506.60125050052653 509.9378665575832) rotate(0 60.99166488647461 9.599999999999909)"><text x="0" y="0" font-family="Cascadia, Segoe UI Emoji" font-size="16px" fill="#343a40" text-anchor="start" style="white-space: pre;" direction="ltr" dominant-baseline="text-before-edge">NombreUsuario</text></g><g transform="translate(479.57149021774785 408.500532926535) rotate(0 109.02500152587893 10)"><text x="0" y="0" font-family="Virgil, Segoe UI Emoji" font-size="16px" fill="#2f9e44" text-anchor="start" style="white-space: pre;" direction="ltr" dominant-baseline="text-before-edge">Nombre de variables Validos</text></g><g transform="translate(724.5523702177479 408.5005329265341) rotate(0 118.60832977294922 10)"><text x="0" y="0" font-family="Virgil, Segoe UI Emoji" font-size="16px" fill="#e03131" text-anchor="start" style="white-space: pre;" direction="ltr" dominant-baseline="text-before-edge">Nombre de variables NoValidos</text></g><g transform="translate(995.492044328043 509.9378664642809) rotate(0 48.516666412353516 10)"><text x="0" y="0" font-family="Virgil, Segoe UI Emoji" font-size="16px" fill="#343a40" text-anchor="start" style="white-space: pre;" direction="ltr" dominant-baseline="text-before-edge">print(nombre)</text></g><g transform="translate(588.5964921550362 548.0699593551144) rotate(0 131.77499389648438 10)"><text x="0" y="0" font-family="Virgil, Segoe UI Emoji" font-size="16px" fill="#343a40" text-anchor="start" style="white-space: pre;" direction="ltr" dominant-baseline="text-before-edge">¡Los nombres tienen que ir juntos!</text></g><g transform="translate(82.79907138735962 779.3351438498967) rotate(0 98.30833435058594 10)"><text x="0" y="0" font-family="Virgil, Segoe UI Emoji" font-size="16px" fill="#343a40" text-anchor="start" style="white-space: pre;" direction="ltr" dominant-baseline="text-before-edge">Si tu edad es más de 18</text></g><g transform="translate(82.79907138735962 831.0031018498976) rotate(0 18.78333282470703 10)"><text x="0" y="0" font-family="Virgil, Segoe UI Emoji" font-size="16px" fill="#343a40" text-anchor="start" style="white-space: pre;" direction="ltr" dominant-baseline="text-before-edge">Si no</text></g><g transform="translate(140.9808279953054 807.229220827815) rotate(0 25.858333587646484 10)"><text x="0" y="0" font-family="Virgil, Segoe UI Emoji" font-size="16px" fill="#343a40" text-anchor="start" style="white-space: pre;" direction="ltr" dominant-baseline="text-before-edge">Entrar</text></g><g transform="translate(140.9808279953054 851.003101827816) rotate(0 68.55000305175781 10)"><text x="0" y="0" font-family="Virgil, Segoe UI Emoji" font-size="16px" fill="#343a40" text-anchor="start" style="white-space: pre;" direction="ltr" dominant-baseline="text-before-edge">No puedes entrar</text></g><g transform="translate(10.000000235740401 733.536233353002) rotate(0 198.22500610351562 10)"><text x="0" y="0" font-family="Virgil, Segoe UI Emoji" font-size="16px" fill="#1e1e1e" text-anchor="start" style="white-space: pre;" direction="ltr" dominant-baseline="text-before-edge">Una regla que se debe de cumplir para hacer algo</text></g><g transform="translate(10 924.0651837660898) rotate(0 145.44166564941406 48)"><text x="0" y="0" font-family="Cascadia, Segoe UI Emoji" font-size="16px" fill="#2f9e44" text-anchor="start" style="white-space: pre;" direction="ltr" dominant-baseline="text-before-edge">edad=25</text><text x="0" y="19.2" font-family="Cascadia, Segoe UI Emoji" font-size="16px" fill="#2f9e44" text-anchor="start" style="white-space: pre;" direction="ltr" dominant-baseline="text-before-edge">if (edad &gt; 18):</text><text x="0" y="38.4" font-family="Cascadia, Segoe UI Emoji" font-size="16px" fill="#2f9e44" text-anchor="start" style="white-space: pre;" direction="ltr" dominant-baseline="text-before-edge">    print("Puedes entrar")</text><text x="0" y="57.599999999999994" font-family="Cascadia, Segoe UI Emoji" font-size="16px" fill="#2f9e44" text-anchor="start" style="white-space: pre;" direction="ltr" dominant-baseline="text-before-edge">else:</text><text x="0" y="76.8" font-family="Cascadia, Segoe UI Emoji" font-size="16px" fill="#2f9e44" text-anchor="start" style="white-space: pre;" direction="ltr" dominant-baseline="text-before-edge">    print("¡No puedes entrar!")</text></g><g transform="translate(706.7048139999999 861.0031017660895) rotate(0 145.44166564941406 48)"><text x="0" y="0" font-family="Cascadia, Segoe UI Emoji" font-size="16px" fill="#1e1e1e" text-anchor="start" style="white-space: pre;" direction="ltr" dominant-baseline="text-before-edge">edad=25</text><text x="0" y="19.2" font-family="Cascadia, Segoe UI Emoji" font-size="16px" fill="#1e1e1e" text-anchor="start" style="white-space: pre;" direction="ltr" dominant-baseline="text-before-edge">if (edad &gt; 18):</text><text x="0" y="38.4" font-family="Cascadia, Segoe UI Emoji" font-size="16px" fill="#1e1e1e" text-anchor="start" style="white-space: pre;" direction="ltr" dominant-baseline="text-before-edge">    print("Puedes entrar")</text><text x="0" y="57.599999999999994" font-family="Cascadia, Segoe UI Emoji" font-size="16px" fill="#1e1e1e" text-anchor="start" style="white-space: pre;" direction="ltr" dominant-baseline="text-before-edge">else:</text><text x="0" y="76.8" font-family="Cascadia, Segoe UI Emoji" font-size="16px" fill="#1e1e1e" text-anchor="start" style="white-space: pre;" direction="ltr" dominant-baseline="text-before-edge">    print("¡No puedes entrar!")</text></g><g transform="translate(635.1776375626653 795.7064705870189) rotate(0 145.55833435058594 10)"><text x="0" y="0" font-family="Virgil, Segoe UI Emoji" font-size="16px" fill="#e03131" text-anchor="start" style="white-space: pre;" direction="ltr" dominant-baseline="text-before-edge">Sintaxis para declarar un condicional</text></g><g stroke-linecap="round"><g transform="translate(678.8028442779823 869.6896426411204) rotate(0 9.906625222584694 0)"><path d="M-0.51 -0.54 C2.88 -0.72, 16.85 -0.59, 20.3 -0.52 M0.23 0.37 C3.59 0.47, 16.83 -0.1, 20.13 -0.09" stroke="#e03131" stroke-width="1" fill="none"></path></g><g transform="translate(678.8028442779823 869.6896426411204) rotate(0 9.906625222584694 0)"><path d="M10.89 3.5 C13.13 2.92, 15.89 1.75, 20.13 -0.09 M10.89 3.5 C13.39 2.66, 16.18 1.53, 20.13 -0.09" stroke="#e03131" stroke-width="1" fill="none"></path></g><g transform="translate(678.8028442779823 869.6896426411204) rotate(0 9.906625222584694 0)"><path d="M10.74 -3.27 C13.06 -1.84, 15.86 -1, 20.13 -0.09 M10.74 -3.27 C13.31 -2.24, 16.14 -1.5, 20.13 -0.09" stroke="#e03131" stroke-width="1" fill="none"></path></g></g><mask></mask><g transform="translate(548.463955384155 841.0031017228739) rotate(0 61.11666488647461 20)"><text x="0" y="0" font-family="Virgil, Segoe UI Emoji" font-size="16px" fill="#1e1e1e" text-anchor="start" style="white-space: pre;" direction="ltr" dominant-baseline="text-before-edge">declaración</text><text x="0" y="20" font-family="Virgil, Segoe UI Emoji" font-size="16px" fill="#1e1e1e" text-anchor="start" style="white-space: pre;" direction="ltr" dominant-baseline="text-before-edge">de una variable</text></g><g stroke-linecap="round"><g transform="translate(575.3078597845436 910.0127029845671) rotate(0 60.60056005934621 -9.454593336123253)"><path d="M-0.19 0.76 C19.79 -2.08, 100.3 -14.57, 120.58 -17.76 M-1.75 0.11 C18.57 -2.97, 102.54 -15.86, 122.96 -19.27" stroke="#1971c2" stroke-width="1" fill="none"></path></g><g transform="translate(575.3078597845436 910.0127029845671) rotate(0 60.60056005934621 -9.454593336123253)"><path d="M101.11 -7.14 C110.21 -12.45, 118.63 -15.32, 122.96 -19.27 M101.11 -7.14 C108.57 -11.97, 116.26 -14.8, 122.96 -19.27" stroke="#1971c2" stroke-width="1" fill="none"></path></g><g transform="translate(575.3078597845436 910.0127029845671) rotate(0 60.60056005934621 -9.454593336123253)"><path d="M98.42 -24.02 C108.37 -23.34, 117.75 -20.2, 122.96 -19.27 M98.42 -24.02 C106.94 -22.99, 115.56 -19.96, 122.96 -19.27" stroke="#1971c2" stroke-width="1" fill="none"></path></g></g><mask></mask><g stroke-linecap="round"><g transform="translate(576.6070893219319 916.656930340785) rotate(0 59.54286947104828 9.839273598859108)"><path d="M-0.81 -1.1 C18.85 2.36, 98.66 16.73, 118.67 20.34 M0.97 0.94 C20.37 4.09, 97.91 15.61, 117.5 18.57" stroke="#1971c2" stroke-width="1" fill="none"></path></g><g transform="translate(576.6070893219319 916.656930340785) rotate(0 59.54286947104828 9.839273598859108)"><path d="M93 23.54 C99.96 21.23, 111.68 20.37, 117.5 18.57 M93 23.54 C102.32 22.08, 110.26 19.5, 117.5 18.57" stroke="#1971c2" stroke-width="1" fill="none"></path></g><g transform="translate(576.6070893219319 916.656930340785) rotate(0 59.54286947104828 9.839273598859108)"><path d="M95.53 6.63 C101.53 10.36, 112.34 15.56, 117.5 18.57 M95.53 6.63 C104.07 11.47, 111.07 15.2, 117.5 18.57" stroke="#1971c2" stroke-width="1" fill="none"></path></g></g><mask></mask><g transform="translate(489.7357520710959 894.7808069905814) rotate(0 39.849998474121094 20)"><text x="0" y="0" font-family="Virgil, Segoe UI Emoji" font-size="16px" fill="#1971c2" text-anchor="start" style="white-space: pre;" direction="ltr" dominant-baseline="text-before-edge">iniciar un</text><text x="0" y="20" font-family="Virgil, Segoe UI Emoji" font-size="16px" fill="#1971c2" text-anchor="start" style="white-space: pre;" direction="ltr" dominant-baseline="text-before-edge">condicional</text></g><g stroke-linecap="round"><g transform="translate(879.8538981708557 862.0735280185263) rotate(0 -21.636224421419286 10.657164438347536)"><path d="M1.2 0.63 C-5.86 4.18, -35.71 18.73, -43.27 22.28 M0.37 -0.08 C-6.77 3.67, -37.2 17.33, -44.21 20.67" stroke="#2f9e44" stroke-width="1" fill="none"></path></g><g transform="translate(879.8538981708557 862.0735280185263) rotate(0 -21.636224421419286 10.657164438347536)"><path d="M-27.09 3.68 C-29.72 7.67, -33 10.02, -44.21 20.67 M-27.09 3.68 C-32.18 9.73, -38.75 16.72, -44.21 20.67" stroke="#2f9e44" stroke-width="1" fill="none"></path></g><g transform="translate(879.8538981708557 862.0735280185263) rotate(0 -21.636224421419286 10.657164438347536)"><path d="M-20.18 18.66 C-24.48 19.36, -29.31 18.36, -44.21 20.67 M-20.18 18.66 C-27.83 19.45, -36.85 21.14, -44.21 20.67" stroke="#2f9e44" stroke-width="1" fill="none"></path></g></g><mask></mask><g transform="translate(886.4443074870921 848.6099141080931) rotate(0 39.849998474121094 10)"><text x="0" y="0" font-family="Virgil, Segoe UI Emoji" font-size="16px" fill="#2f9e44" text-anchor="start" style="white-space: pre;" direction="ltr" dominant-baseline="text-before-edge">condicional</text></g><g transform="translate(1022.7958645939182 770.066869312488) rotate(0 69.00833129882818 50)"><text x="0" y="0" font-family="Virgil, Segoe UI Emoji" font-size="16px" fill="#f08c00" text-anchor="start" style="white-space: pre;" direction="ltr" dominant-baseline="text-before-edge">&gt; mayor que</text><text x="0" y="20" font-family="Virgil, Segoe UI Emoji" font-size="16px" fill="#f08c00" text-anchor="start" style="white-space: pre;" direction="ltr" dominant-baseline="text-before-edge">&lt; menor que</text><text x="0" y="40" font-family="Virgil, Segoe UI Emoji" font-size="16px" fill="#f08c00" text-anchor="start" style="white-space: pre;" direction="ltr" dominant-baseline="text-before-edge">&gt;= mayor o igual </text><text x="0" y="60" font-family="Virgil, Segoe UI Emoji" font-size="16px" fill="#f08c00" text-anchor="start" style="white-space: pre;" direction="ltr" dominant-baseline="text-before-edge">&lt;= menor o igual</text><text x="0" y="80" font-family="Virgil, Segoe UI Emoji" font-size="16px" fill="#f08c00" text-anchor="start" style="white-space: pre;" direction="ltr" dominant-baseline="text-before-edge">== igualdad</text></g><g stroke-linecap="round"><g transform="translate(811.8775889035035 864.7599586072847) rotate(0 -6.854397215903532 9.039266879194656)"><path d="M-0.33 -0.36 C-2.51 2.58, -11.15 14.87, -13.42 17.89 M0.51 0.65 C-1.7 3.64, -11.22 15.57, -13.71 18.49" stroke="#f08c00" stroke-width="1" fill="none"></path></g><g transform="translate(811.8775889035035 864.7599586072847) rotate(0 -6.854397215903532 9.039266879194656)"><path d="M-9.95 7.79 C-11.22 10.71, -11.97 12.8, -13.71 18.49 M-9.95 7.79 C-10.79 10.3, -11.91 13.01, -13.71 18.49" stroke="#f08c00" stroke-width="1" fill="none"></path></g><g transform="translate(811.8775889035035 864.7599586072847) rotate(0 -6.854397215903532 9.039266879194656)"><path d="M-3.95 12.71 C-6.71 14.4, -8.94 15.28, -13.71 18.49 M-3.95 12.71 C-6.23 14.06, -8.77 15.6, -13.71 18.49" stroke="#f08c00" stroke-width="1" fill="none"></path></g></g><mask></mask><g transform="translate(805.9077209415368 815.7064709320985) rotate(0 33.95000076293945 20)"><text x="0" y="0" font-family="Virgil, Segoe UI Emoji" font-size="16px" fill="#f08c00" text-anchor="start" style="white-space: pre;" direction="ltr" dominant-baseline="text-before-edge">operador</text><text x="0" y="20" font-family="Virgil, Segoe UI Emoji" font-size="16px" fill="#f08c00" text-anchor="start" style="white-space: pre;" direction="ltr" dominant-baseline="text-before-edge">lógico</text></g><g stroke-linecap="round" transform="translate(739.091291158996 898.4785562224442) rotate(0 113.52650644374364 12.50975073824884)"><path d="M6.25 0 C75.44 -1.07, 145.74 -1.35, 220.8 0 M6.25 0 C90.35 -0.41, 175.11 -1.35, 220.8 0 M220.8 0 C226.82 1.55, 228.86 1.88, 227.05 6.25 M220.8 0 C224.94 0.25, 227.15 3.66, 227.05 6.25 M227.05 6.25 C227.78 9.75, 227.17 10.85, 227.05 18.76 M227.05 6.25 C226.64 10.1, 227.32 14.2, 227.05 18.76 M227.05 18.76 C226.41 22.42, 225.62 23.22, 220.8 25.02 M227.05 18.76 C226.08 24.84, 223.9 25.53, 220.8 25.02 M220.8 25.02 C151.78 25.5, 85.33 24.9, 6.25 25.02 M220.8 25.02 C172.4 25.8, 124.93 25.94, 6.25 25.02 M6.25 25.02 C1.02 23.02, 1.93 20.99, 0 18.76 M6.25 25.02 C4.22 24.47, -0.86 20.84, 0 18.76 M0 18.76 C0.54 14.72, 0.81 10.48, 0 6.25 M0 18.76 C0.47 15.98, -0.31 12.24, 0 6.25 M0 6.25 C-0.94 3.6, 2.18 -1.93, 6.25 0 M0 6.25 C-1.74 4.21, 3.14 1.17, 6.25 0" stroke="#2f9e44" stroke-width="1" fill="none"></path></g><g stroke-linecap="round" transform="translate(744.820473158996 935.5570312224436) rotate(0 126.38383594374369 12.50975073824884)"><path d="M6.25 0 C82.66 0.61, 156.63 0.06, 246.51 0 M6.25 0 C79.03 1.38, 152.96 0.87, 246.51 0 M246.51 0 C250.35 -0.14, 251.81 1.52, 252.77 6.25 M246.51 0 C249.95 0.39, 250.98 3.98, 252.77 6.25 M252.77 6.25 C252.27 10.63, 251.64 12.76, 252.77 18.76 M252.77 6.25 C252.77 11.11, 252.52 15.24, 252.77 18.76 M252.77 18.76 C253.78 23.31, 250.11 23.85, 246.51 25.02 M252.77 18.76 C254.63 24.43, 252.44 25.81, 246.51 25.02 M246.51 25.02 C195.32 25.54, 141.95 26.35, 6.25 25.02 M246.51 25.02 C186.24 22.57, 126.49 24.1, 6.25 25.02 M6.25 25.02 C3.56 25.44, 1.39 24.04, 0 18.76 M6.25 25.02 C1.36 26.93, -1.53 21.39, 0 18.76 M0 18.76 C-1.31 14.85, -1.09 8.58, 0 6.25 M0 18.76 C-0.23 14.19, 0.05 9.56, 0 6.25 M0 6.25 C-1.53 3.46, 1.84 -1.58, 6.25 0 M0 6.25 C-0.1 0.2, 0.6 1.37, 6.25 0" stroke="#e03131" stroke-width="1" fill="none"></path></g><g transform="translate(986.2982506138633 895.5570315545447) rotate(0 115.81666564941406 20)"><text x="0" y="0" font-family="Virgil, Segoe UI Emoji" font-size="16px" fill="#2f9e44" text-anchor="start" style="white-space: pre;" direction="ltr" dominant-baseline="text-before-edge">bloque de código</text><text x="0" y="20" font-family="Virgil, Segoe UI Emoji" font-size="16px" fill="#2f9e44" text-anchor="start" style="white-space: pre;" direction="ltr" dominant-baseline="text-before-edge">si el condicional es verdadero</text></g><g transform="translate(997.5881446138633 961.0471935545447) rotate(0 130.77499389648438 20)"><text x="0" y="0" font-family="Virgil, Segoe UI Emoji" font-size="16px" fill="#e03131" text-anchor="start" style="white-space: pre;" direction="ltr" dominant-baseline="text-before-edge">bloque de código</text><text x="0" y="20" font-family="Virgil, Segoe UI Emoji" font-size="16px" fill="#e03131" text-anchor="start" style="white-space: pre;" direction="ltr" dominant-baseline="text-before-edge">si el condicional NO es verdadero</text></g><g transform="translate(650.7026317938962 1046.3395925000423) rotate(0 176.15834045410156 20)"><text x="0" y="0" font-family="Virgil, Segoe UI Emoji" font-size="16px" fill="#1e1e1e" text-anchor="start" style="white-space: pre;" direction="ltr" dominant-baseline="text-before-edge">Ejercicio: Basado en el ejercicio anterior,</text><text x="0" y="20" font-family="Virgil, Segoe UI Emoji" font-size="16px" fill="#1e1e1e" text-anchor="start" style="white-space: pre;" direction="ltr" dominant-baseline="text-before-edge">imprime un mensaje si el usuario puede votar</text></g><g transform="translate(1131.9401984289145 176.54298500094865) rotate(0 31.33333396911621 10)"><text x="0" y="0" font-family="Virgil, Segoe UI Emoji" font-size="16px" fill="#1e1e1e" text-anchor="start" style="white-space: pre;" direction="ltr" dominant-baseline="text-before-edge">"Jeremy"</text></g><g transform="translate(1152.6318661072557 206.95028085779722) rotate(0 10.641666412353516 10)"><text x="0" y="0" font-family="Virgil, Segoe UI Emoji" font-size="16px" fill="#1e1e1e" text-anchor="start" style="white-space: pre;" direction="ltr" dominant-baseline="text-before-edge">25</text></g><g transform="translate(1142.53186556852 237.35757584898147) rotate(0 20.741666793823242 10)"><text x="0" y="0" font-family="Virgil, Segoe UI Emoji" font-size="16px" fill="#1e1e1e" text-anchor="start" style="white-space: pre;" direction="ltr" dominant-baseline="text-before-edge">False</text></g><g stroke-opacity="0.2" fill-opacity="0.2" transform="translate(1068.1677426672354 176.54298484733317) rotate(0 30.04999923706049 10)"><text x="0" y="0" font-family="Virgil, Segoe UI Emoji" font-size="16px" fill="#343a40" text-anchor="start" style="white-space: pre;" direction="ltr" dominant-baseline="text-before-edge">nombre=</text></g><g stroke-opacity="0.2" fill-opacity="0.2" transform="translate(1074.4760756672354 206.95028084733258) rotate(0 23.741666793823185 10)"><text x="0" y="0" font-family="Virgil, Segoe UI Emoji" font-size="16px" fill="#343a40" text-anchor="start" style="white-space: pre;" direction="ltr" dominant-baseline="text-before-edge">edad=</text></g><g stroke-opacity="0.2" fill-opacity="0.2" transform="translate(1062.384409667235 237.35757584733255) rotate(0 32.94166564941406 10)"><text x="0" y="0" font-family="Virgil, Segoe UI Emoji" font-size="16px" fill="#343a40" text-anchor="start" style="white-space: pre;" direction="ltr" dominant-baseline="text-before-edge">casado=</text></g><g transform="translate(1257.1926716372848 192.44908682753885) rotate(0 60.99166488647461 9.599999999999909)"><text x="0" y="0" font-family="Cascadia, Segoe UI Emoji" font-size="16px" fill="#1e1e1e" text-anchor="start" style="white-space: pre;" direction="ltr" dominant-baseline="text-before-edge">print(nombre)</text></g><g transform="translate(1254.9593186372847 221.45147582753907) rotate(0 70.375 9.599999999999909)"><text x="0" y="0" font-family="Cascadia, Segoe UI Emoji" font-size="16px" fill="#1e1e1e" text-anchor="start" style="white-space: pre;" direction="ltr" dominant-baseline="text-before-edge">print("Jeremy")</text></g><g transform="translate(1104.0072498907818 124.96979913776431) rotate(0 117.29166412353516 9.599999999999909)"><text x="0" y="0" font-family="Cascadia, Segoe UI Emoji" font-size="16px" fill="#1e1e1e" text-anchor="start" style="white-space: pre;" direction="ltr" dominant-baseline="text-before-edge">¿Print que puede recibir?</text></g><g stroke-linecap="round"><g transform="translate(741.4885901089654 874.1486707403456) rotate(0 8.589797054120822 4.994068054721538)"><path d="M0.13 0.25 C2.92 1.94, 13.92 8.85, 16.76 10.39 M-0.47 -0.1 C2.49 1.42, 14.9 7.98, 17.78 9.63" stroke="#f08c00" stroke-width="1" fill="none"></path></g><g transform="translate(741.4885901089654 874.1486707403456) rotate(0 8.589797054120822 4.994068054721538)"><path d="M7.96 8.14 C11.18 8.2, 14.31 9.02, 17.78 9.63 M7.96 8.14 C9.78 8.46, 11.88 8.52, 17.78 9.63" stroke="#f08c00" stroke-width="1" fill="none"></path></g><g transform="translate(741.4885901089654 874.1486707403456) rotate(0 8.589797054120822 4.994068054721538)"><path d="M11.21 2.17 C13.46 4.06, 15.59 6.7, 17.78 9.63 M11.21 2.17 C12.36 3.7, 13.81 4.96, 17.78 9.63" stroke="#f08c00" stroke-width="1" fill="none"></path></g></g><mask></mask></svg>